<?xml version="1.0" encoding="utf-8"?>
<!-- Generator: Adobe Illustrator 18.0.0, SVG Export Plug-In . SVG Version: 6.00 Build 0)  -->
<!DOCTYPE svg PUBLIC "-//W3C//DTD SVG 1.1//EN" "http://www.w3.org/Graphics/SVG/1.1/DTD/svg11.dtd">
<svg version="1.1" id="Layer_1" xmlns="http://www.w3.org/2000/svg" xmlns:xlink="http://www.w3.org/1999/xlink" x="0px" y="0px"
	 viewBox="0 0 420 325" enable-background="new 0 0 420 325" xml:space="preserve">
<defs>
	<filter id="Adobe_OpacityMaskFilter" filterUnits="userSpaceOnUse" x="-17.7" y="-19.2" width="486.7" height="363.3">
		<feFlood  style="flood-color:white;flood-opacity:1" result="back"/>
		<feBlend  in="SourceGraphic" in2="back" mode="normal"/>
	</filter>
</defs>
<mask maskUnits="userSpaceOnUse" x="-17.7" y="-19.2" width="486.7" height="363.3" id="SVGID_1_">
	<g filter="url(#Adobe_OpacityMaskFilter)">
		<g>
			<g>
				<path fill="#010101" d="M337.7,249.3c14.8-11.8,3.4-66.7-3.6-85.6l-3.9-9.1c-2.5-6.1-6.3-10.3-12.4-13
					c-14.3-6.3-26.3-11.8-38-17c-14.2-6.4-27.6-12.4-44.6-19.9c-5.4-2.4-11-3.6-16.6-3.6c-17.7,0-32.4,11.4-40.3,17.5
					c0,0-69.5,56.2-83.3,60.3c-13.9,4.2-29.4,4.9-37.9,5v85.3c29.4,1,50,9.8,66.8,17c4.4,1.9,8.5,3.6,12.4,5.1
					c8.6,3.2,19.3,4.8,32.8,4.8c5.2,0,10.8-0.2,16.9-0.7c1.1,1.6,2.4,3,3.9,4.1c3,2.3,6.6,3.4,10.3,3.4c6.6,0,12-4.5,15.7-8.8
					l0.6,2.2c1.1,3.6,3.2,6.7,6.2,9c3,2.3,6.6,3.4,10.3,3.4c12.9,0,21.3-17.2,21.3-17.2s1.9,14.5,9.1,19.8c3,2.2,6.6,3.4,10.3,3.4
					c5.5,0,10.3-2.7,13.8-6.9c19.9-24.3,27.9-64.3,27.9-64.3S329.7,255.7,337.7,249.3z M286.7,194l14,4.7l10.1,29.8L286.7,194z"/>
				<path fill="#010101" d="M152.2,28.9c-1.1,1.6-1.9,3.4-2.3,5.5c-3.9,19.3,24,59.9,27.2,64.5c1.6,2.3,4.7,2.9,7,1.4
					c0.1-0.1,0.2-0.1,0.2-0.2c2.4-1.7,2.9-4.9,1.3-7.3c-9.7-13.8-23.7-38-25.5-51.4l35.3,56.6c6.9-2.9,14.7-5.6,23.2-5.6
					c6.4,0,12.7,1.8,18.8,4.2L179.8,4.5c-1.5-2.4-4.7-3.2-7.2-1.7l-22,13.7c-2.4,1.5-3.2,4.7-1.7,7.2L152.2,28.9z"/>
				<path fill="#010101" d="M364.4,319.1l-14-47c-0.1-0.4-0.3-0.9-0.6-1.3l-8.7-14c-1.7,0.4-3.4,0.6-5.1,0.7c-0.6,0-1.3,0-1.9,0
					c-4.9,0-9.5-1-13.7-3c-2,6.8-4.8,15.2-8.6,23.9l7.2,11.6c0.2,0.4,0.5,0.8,0.9,1.1l36,33.3c1.7,1.6,4.3,1.8,6.3,0.6
					C364.2,323.8,365.1,321.4,364.4,319.1z"/>
				<rect x="208" y="232.7" width="4" height="105.6"/>
				<rect x="208" y="-0.8" width="4" height="88.7"/>
			</g>
		</g>
	</g>
</mask>
<rect x="-17.7" y="-19.2" mask="url(#SVGID_1_)" fill="#EEF3F5" width="486.7" height="363.3"/>
</svg>
