<?xml version="1.0" encoding="utf-8"?>
<!-- Generator: Adobe Illustrator 18.0.0, SVG Export Plug-In . SVG Version: 6.00 Build 0)  -->
<!DOCTYPE svg PUBLIC "-//W3C//DTD SVG 1.1//EN" "http://www.w3.org/Graphics/SVG/1.1/DTD/svg11.dtd">
<svg version="1.1" id="Layer_1" xmlns="http://www.w3.org/2000/svg" xmlns:xlink="http://www.w3.org/1999/xlink" x="0px" y="0px"
	 viewBox="0 0 420 325" enable-background="new 0 0 420 325" xml:space="preserve">
<defs>
	<filter id="Adobe_OpacityMaskFilter" filterUnits="userSpaceOnUse" x="-10.8" y="-12.1" width="443.1" height="350.7">
		<feFlood  style="flood-color:white;flood-opacity:1" result="back"/>
		<feBlend  in="SourceGraphic" in2="back" mode="normal"/>
	</filter>
</defs>
<mask maskUnits="userSpaceOnUse" x="-10.8" y="-12.1" width="443.1" height="350.7" id="SVGID_1_">
	<g filter="url(#Adobe_OpacityMaskFilter)">
		<g>
			<g>
				<path fill="#060507" d="M249.1,4.5C162-17,73.6,36.3,52,123.4s31.8,175.5,118.9,197C258,342,346.4,288.7,368,201.6
					C389.5,114.5,336.2,26.1,249.1,4.5z M317,242.6c-0.2,0.3-0.5,0.5-0.7,0.8C316.5,243.1,316.8,242.8,317,242.6
					c44.2-50.7,20.4-118.4,12.2-137.1c-21.8-49.8-58.2-63.4-77.7-67.1c-8.1-1.5-13.3-1.4-13.3-1.4c-3.8-0.2-7.5-0.2-10.9-0.1
					c-44.6,2-56.6,32.8-59,41c-0.4,1.3-0.5,2-0.5,2c-2.3,8.5-3.2,16-3.2,22.9c0.4,47.8,51.6,58.4,64.3,68.9s26.9,25,25.9,50.7
					c-0.2,3.7-0.6,7.6-1.4,11.7c-0.3,1.3-0.5,2.5-0.8,3.7c-0.2,0.7-0.4,1.3-0.6,2c-5.8,21.4-16.7,34-28.5,41.1
					c-12.4,7.5-25.6,9.2-34.8,9.2c-6.1,0-10.4-0.7-11.4-0.9c2.5,0.6,5,1.2,7.5,1.8c-2-0.4-4.1-0.7-6.1-1.3c-13-3.2-25.1-8.3-36-14.9
					c-40.6-24.4-65.4-69.6-63.5-117.5c0.4-8.7,1.6-17.5,3.7-26.2c3.2-13.2,8.4-25.3,15.1-36.4c24.5-40.4,69.5-65,117.3-63.1
					c8.7,0.4,17.5,1.6,26.2,3.7c3.4,0.9,6.7,1.9,10,3c19.5,3.7,55.8,17.4,77.7,67.1C337.4,124.2,361.2,191.9,317,242.6z M222.4,75.5
					c0.7,0,1.4,0.1,2.1,0.2c0.7,0.1,1.3,0.1,2,0.3c0.1,0,0.2,0,0.4,0.1c0.5,0.1,0.9,0.3,1.3,0.5c0.7,0.2,1.4,0.4,2.1,0.7
					c0.6,0.3,1.1,0.6,1.7,0.9c0.6,0.3,1.1,0.6,1.7,1c0.6,0.4,1.1,0.8,1.6,1.3c0.5,0.4,0.9,0.8,1.3,1.2c0.5,0.5,0.9,1,1.3,1.5
					c0.4,0.5,0.8,1,1.1,1.5c0.4,0.5,0.6,1.1,0.9,1.7c0.3,0.6,0.6,1.1,0.8,1.7c0.3,0.6,0.4,1.3,0.6,2c0.2,0.6,0.3,1.1,0.5,1.7
					c0.1,0.7,0.2,1.5,0.2,2.3c0,0.6,0.1,1.1,0.1,1.7c0,0.7-0.1,1.4-0.2,2.1c-0.1,0.7-0.1,1.3-0.3,2c0,0.1,0,0.2-0.1,0.4
					c-0.1,0.5-0.3,0.9-0.5,1.3c-0.2,0.7-0.4,1.4-0.7,2.1c-0.3,0.6-0.6,1.1-0.9,1.7c-0.3,0.6-0.6,1.1-1,1.7c-0.4,0.5-0.8,1-1.3,1.5
					c-0.4,0.5-0.8,0.9-1.3,1.4c-0.5,0.4-1,0.8-1.5,1.2c-0.5,0.4-1,0.8-1.5,1.2c-0.5,0.3-1.1,0.6-1.6,0.9c-0.6,0.3-1.2,0.6-1.8,0.9
					c-0.6,0.2-1.2,0.4-1.9,0.6c-0.6,0.2-1.2,0.4-1.8,0.5c-0.7,0.1-1.5,0.2-2.2,0.2c-0.6,0-1.1,0.1-1.7,0.1c-0.7,0-1.4-0.1-2.1-0.2
					c-0.7-0.1-1.4-0.1-2-0.3c-0.1,0-0.2,0-0.4-0.1c-0.5-0.1-0.9-0.3-1.3-0.5c-0.7-0.2-1.4-0.4-2.1-0.7c-0.6-0.3-1.1-0.6-1.7-0.9
					c-0.6-0.3-1.1-0.6-1.7-1c-0.5-0.4-1-0.8-1.5-1.3c-0.5-0.4-0.9-0.8-1.4-1.2c-0.5-0.5-0.8-1-1.2-1.5c-0.4-0.5-0.8-1-1.1-1.5
					c-0.3-0.5-0.6-1.1-0.9-1.7c-0.3-0.6-0.6-1.1-0.8-1.7c-0.2-0.6-0.4-1.3-0.6-1.9c-0.2-0.6-0.4-1.2-0.5-1.8
					c-0.1-0.7-0.2-1.5-0.2-2.3c0-0.6-0.1-1.1-0.1-1.7c0-0.7,0.1-1.4,0.2-2.1c0.1-0.7,0.1-1.3,0.3-2c0-0.1,0-0.3,0.1-0.4
					c0.1-0.5,0.3-0.9,0.5-1.4c0.2-0.7,0.4-1.4,0.7-2c0.3-0.6,0.6-1.2,0.9-1.7c0.3-0.5,0.6-1.1,1-1.6c0.4-0.6,0.9-1.1,1.3-1.6
					c0.4-0.4,0.8-0.9,1.2-1.3c0.5-0.5,1-0.9,1.6-1.3c0.5-0.4,1-0.8,1.5-1.1c0.5-0.4,1.1-0.6,1.7-0.9c0.6-0.3,1.1-0.6,1.7-0.8
					c0.6-0.3,1.3-0.4,2-0.6c0.6-0.2,1.1-0.3,1.7-0.5c0.8-0.1,1.5-0.2,2.3-0.2C221.3,75.6,221.8,75.5,222.4,75.5z"/>
				<path fill="#060507" d="M171.3,231.9c0.1,0.6,0.3,1.2,0.5,1.8c0.2,0.6,0.3,1.2,0.6,1.8c0.2,0.6,0.6,1.2,0.9,1.8
					c0.3,0.5,0.5,1.1,0.9,1.6c0.4,0.6,0.8,1.1,1.2,1.6c0.4,0.5,0.7,1,1.2,1.4c0.5,0.5,1,0.9,1.4,1.3c0.5,0.4,0.9,0.8,1.4,1.2
					c0.6,0.4,1.2,0.7,1.8,1.1c0.5,0.3,1,0.6,1.5,0.8c0.7,0.3,1.5,0.6,2.3,0.8c0.5,0.2,1,0.3,1.5,0.5c0.7,0.2,1.5,0.2,2.2,0.3
					c0.6,0.1,1.2,0.2,1.9,0.2c0.1,0,0.3,0,0.4,0c0.5,0,1-0.1,1.5-0.1c0.7-0.1,1.4-0.1,2.1-0.2c0.6-0.1,1.3-0.3,1.9-0.5
					c0.6-0.2,1.2-0.3,1.8-0.6c0.6-0.2,1.2-0.6,1.8-0.9c0.6-0.3,1.1-0.6,1.6-0.9c0.5-0.3,1-0.7,1.5-1.1c0.5-0.4,1.1-0.8,1.5-1.3
					c0.4-0.4,0.8-0.9,1.2-1.3c0.5-0.5,0.9-1,1.3-1.6c0.3-0.5,0.6-1,0.9-1.6c0.3-0.6,0.7-1.2,1-1.8c0.3-0.6,0.5-1.3,0.7-1.9
					c0.2-0.6,0.4-1.2,0.6-1.8c0.1-0.6,0.2-1.2,0.3-1.8c0.1-0.7,0.2-1.5,0.2-2.2c0-0.1,0-0.2,0-0.3c0-0.4-0.1-0.8-0.1-1.2
					c-0.1-0.8-0.1-1.6-0.2-2.4c-0.1-0.6-0.3-1.1-0.4-1.7c-0.2-0.7-0.4-1.4-0.6-2c-0.2-0.6-0.5-1.1-0.8-1.6c-0.3-0.6-0.6-1.2-1-1.8
					c-0.3-0.5-0.7-0.9-1-1.4c-0.4-0.6-0.9-1.1-1.3-1.6c-0.4-0.4-0.8-0.8-1.2-1.1c-0.5-0.5-1.1-1-1.7-1.4c-0.5-0.3-1-0.6-1.5-0.9
					c-0.6-0.4-1.2-0.7-1.8-1c-0.6-0.3-1.3-0.5-1.9-0.7c-0.6-0.2-1.2-0.4-1.9-0.6c-0.6-0.1-1.2-0.2-1.8-0.3c-0.8-0.1-1.5-0.2-2.3-0.2
					c-0.1,0-0.2,0-0.3,0c-0.4,0-0.8,0.1-1.2,0.1c-0.8,0-1.7,0.1-2.5,0.3c-0.5,0.1-1.1,0.3-1.6,0.4c-0.7,0.2-1.4,0.4-2.1,0.7
					c-0.5,0.2-1.1,0.5-1.6,0.8c-0.6,0.3-1.2,0.6-1.8,1c-0.5,0.3-1,0.7-1.4,1.1c-0.5,0.4-1.1,0.8-1.6,1.3c-0.4,0.4-0.8,0.9-1.2,1.3
					c-0.5,0.5-0.9,1-1.3,1.6c-0.4,0.5-0.7,1.1-1,1.6c-0.3,0.6-0.7,1.1-0.9,1.7c-0.3,0.7-0.5,1.4-0.7,2.1c-0.2,0.6-0.4,1.1-0.5,1.7
					c-0.2,0.7-0.2,1.3-0.3,2c-0.1,0.7-0.2,1.3-0.2,2c0,0.1,0,0.2,0,0.4c0,0.5,0.1,0.9,0.1,1.4C171.1,230.4,171.2,231.2,171.3,231.9z
					"/>
			</g>
		</g>
	</g>
</mask>
<rect x="-10.8" y="-12.1" mask="url(#SVGID_1_)" fill="#EEF3F5" width="443.1" height="350.7"/>
</svg>
