<?xml version="1.0" encoding="utf-8"?>
<!-- Generator: Adobe Illustrator 18.0.0, SVG Export Plug-In . SVG Version: 6.00 Build 0)  -->
<!DOCTYPE svg PUBLIC "-//W3C//DTD SVG 1.1//EN" "http://www.w3.org/Graphics/SVG/1.1/DTD/svg11.dtd">
<svg version="1.1" id="Layer_1" xmlns="http://www.w3.org/2000/svg" xmlns:xlink="http://www.w3.org/1999/xlink" x="0px" y="0px"
	 viewBox="8.5 0 420 325" enable-background="new 8.5 0 420 325" xml:space="preserve">
<defs>
	<filter id="Adobe_OpacityMaskFilter" filterUnits="userSpaceOnUse" x="-16.6" y="-18.9" width="476.1" height="434.8">
		<feFlood  style="flood-color:white;flood-opacity:1" result="back"/>
		<feBlend  in="SourceGraphic" in2="back" mode="normal"/>
	</filter>
</defs>
<mask maskUnits="userSpaceOnUse" x="-16.6" y="-18.9" width="476.1" height="434.8" id="SVGID_1_">
	<g filter="url(#Adobe_OpacityMaskFilter)">
		<g>
			<g>
				<path fill="#010002" d="M266.5,204.6c-14.6,1.4-30.3-16.5-46.8-16.5c-17.6,0-34.4,17.7-49.9,16.1c-42.2-4.3-73.8-13.9-82.3-25.6
					c2.4,17.4,6.8,33.8,12.7,49.1c1.5,1.5,3,3,4.6,4.6c4.4,4.8,10.1,8.7,15.4,13.4c5.9,4,11.6,8.5,18.2,11.9c6.3,4,13.3,6.8,20.1,10
					c7.1,2.5,14.1,5.4,21.3,6.9c7.1,2.1,14.4,3,21.4,4.2c7,0.3,13.9,1.5,20.4,1.1c3.3,0,6.4-0.1,9.5-0.1c3.1-0.3,6-0.6,8.8-0.9
					c5.7-0.5,10.8-1.5,15.4-2.4c2.3-0.4,4.5-0.8,6.5-1.2c1.9-0.6,3.7-1.1,5.3-1.6c6.5-1.8,10.3-2.8,10.3-2.8s-3.5,1.6-9.7,4.4
					c-1.6,0.7-3.3,1.4-5.2,2.2c-2,0.6-4.1,1.3-6.3,2c-4.5,1.5-9.7,3.2-15.5,4c-2.9,0.5-5.9,1.1-9,1.7c-3.2,0.3-6.5,0.5-9.8,0.8
					c-6.8,0.9-13.9,0.2-21.3,0.1c-7.3-1.1-15.1-1.5-22.6-3.7c-7.7-1.5-15.1-4.4-22.6-7c-7.2-3.4-14.5-6.5-21-10.8
					c-6.9-3.7-12.7-8.8-18.7-13.1c-2.7-2.6-5.5-5-8.1-7.5c24,49,65.3,81.4,112.4,81.4c65.9,0,120.6-63.3,132.2-146.8
					C343.2,190.7,310.2,200.5,266.5,204.6z"/>
				<path fill="#010002" d="M265.3,183.2c16.8-3.2,16.4-7,16.3-8.4c-0.4-3.8-5.9-3.8-8.5-3.8c-2.8,0-6.1,0.3-9.5,0.8
					c-3,0.4-13,2.1-15.6,5.7c-0.6,0.9-0.9,1.9-0.7,3c0.6,3.9,6.2,3.9,8.3,3.9C258.3,184.2,261.8,183.8,265.3,183.2z"/>
				<path fill="#010002" d="M177.9,184.3c1.9,0,7.5,0,8.2-3.9c0.2-1-0.1-2.1-0.7-3c-2.5-3.5-11.8-5.2-14.6-5.7
					c-3.2-0.5-6.3-0.8-8.8-0.8c-2.3,0-7.8,0-8.3,3.9c-0.5,3.6,4.7,6.5,15.2,8.5C172.1,184,175.3,184.3,177.9,184.3z"/>
				<path fill="#010002" d="M390.1,55.1c0,0-0.9-2-3.1-5.1c-1.1-1.5-2.6-3.3-4.4-5.3c-1.8-2.1-4-4-6.7-5.6c-2.6-1.7-5.6-3.4-8.9-5
					c-3.3-1.7-7-2.3-10.8-3.1c-1.2-0.2-2.4-0.3-3.7-0.4c2.7-1.1,5.4-2.1,7.8-3.3c2.6-1.1,5.1-2.2,7.3-3.4c2.2-1.2,4.2-2,5.8-3
					c3.3-1.8,5.3-3.2,5.3-3.2l0.1,0c0.1-0.1,0.2-0.2,0.3-0.4c0.4-0.6,0.3-1.5-0.4-1.9c0,0-2-1.3-5.6-2.9c-1.8-0.8-4.1-1.7-6.6-2.3
					c-2.6-0.6-5.6-1.3-8.8-1.6c-3.2-0.2-6.8-0.4-10.5-0.1c-3.7,0.4-7.7,0.9-11.5,2.2c-3.9,1.3-7.7,3.1-11.4,5.4
					c-3.8,2.1-7.3,4.8-11,7c-0.7,0.5-1.3,1-2,1.5c3.2,2.9,6.2,5.9,9.2,9.1c1.5,1.6,2.9,3.3,4.4,5c3.3,3.8,6.3,7.9,9.2,12.1
					c2.9,0.5,5.7,1.1,8.5,1.8c3.3,0.6,6.4,1.9,9.5,2.5c3,0.7,6.2,0.6,9,1c2.8,0.4,5.6,0.6,8.3,0.7c1.3,0.1,2.7,0,4,0
					c1.2,0.1,2.3,0.3,3.5,0.3c2.2,0.2,4.3,0.2,6.1,0.2c3.6,0,6-0.3,6-0.3l0.2,0c0.1,0,0.3-0.1,0.4-0.1
					C390.1,56.7,390.5,55.8,390.1,55.1z"/>
				<path fill="#010002" d="M324.7,64c-6.3-4-13.3-6.8-20.1-10c-7.1-2.5-14.1-5.4-21.3-6.9c-7.1-2.1-14.4-3-21.3-4.2
					c-7-0.3-13.9-1.5-20.4-1.1c-3.3,0-6.4,0.1-9.5,0.1c-3,0.3-6,0.6-8.8,0.9c-5.7,0.5-10.8,1.5-15.4,2.4c-2.3,0.4-4.5,0.8-6.5,1.2
					c-1.9,0.6-3.7,1.1-5.3,1.6c-6.5,1.8-10.3,2.8-10.3,2.8s3.5-1.6,9.7-4.4c1.6-0.7,3.3-1.4,5.2-2.2c2-0.6,4.1-1.3,6.3-2
					c4.5-1.5,9.7-3.2,15.5-4c2.9-0.5,5.9-1.1,9-1.7c3.2-0.3,6.5-0.5,9.8-0.8c6.7-0.9,13.9-0.2,21.3-0.1c7.3,1.1,15.1,1.5,22.6,3.7
					c7.7,1.5,15.1,4.4,22.6,7c4.7,2.3,9.4,4.5,14,6.9c-1.6-2.1-3.1-4.3-4.8-6.3c-1.4-1.7-2.9-3.4-4.4-5c-2.9-3.2-6-6.2-9.2-9.1
					c-23-20.7-52.1-33.1-83.8-33.1C145.4-0.5,85.2,67.3,85.2,151c0,6.4,0.5,12.6,1.1,18.8c8.3-14.3,64.8-25.4,133.4-25.4
					s125.1,11.1,133.4,25.4c0.7-6.2,1.1-12.4,1.1-18.8c0-30.3-8-58.5-21.7-82.2C330,67.1,327.5,65.4,324.7,64z"/>
			</g>
		</g>
	</g>
</mask>
<polygon mask="url(#SVGID_1_)" fill="#EEF3F5" points="449,406.7 -16.6,415.9 1.2,-14.1 459.5,-18.9 "/>
</svg>
