<?xml version="1.0" encoding="utf-8"?>
<!-- Generator: Adobe Illustrator 18.0.0, SVG Export Plug-In . SVG Version: 6.00 Build 0)  -->
<!DOCTYPE svg PUBLIC "-//W3C//DTD SVG 1.1//EN" "http://www.w3.org/Graphics/SVG/1.1/DTD/svg11.dtd">
<svg version="1.1" id="Layer_1" xmlns="http://www.w3.org/2000/svg" xmlns:xlink="http://www.w3.org/1999/xlink" x="0px" y="0px"
	 viewBox="0 0 420 325" enable-background="new 0 0 420 325" xml:space="preserve">
<defs>
	<filter id="Adobe_OpacityMaskFilter" filterUnits="userSpaceOnUse" x="-14" y="-14" width="463" height="361">
		<feFlood  style="flood-color:white;flood-opacity:1" result="back"/>
		<feBlend  in="SourceGraphic" in2="back" mode="normal"/>
	</filter>
</defs>
<mask maskUnits="userSpaceOnUse" x="-14" y="-14" width="463" height="361" id="SVGID_1_">
	<g filter="url(#Adobe_OpacityMaskFilter)">
		<g>
			<g>
				<g>
					<path fill="#FFFFFF" d="M-30.7,373.6c0-139.9,0-279.8,0-419.7c166.9,0,333.8,0,500.8,0c0,139.9,0,279.8,0,419.7
						C303.1,373.6,136.2,373.6-30.7,373.6z M317.3,303.1c-2.6,7.3,5.6,7.5,8.4,11.7c0.5-2.2,1.2-5.1,0-6.3
						C323.4,306.2,320.2,304.9,317.3,303.1c-0.1-1.4-0.7-3-0.3-4.3c2.2-7.2,4.4-14.4,6.9-21.5c1.3-3.8,1.8-7.4-1.9-9.6
						c-0.7-0.4-3.8,2.6-5.3,4.4c-3.6,4.1-7,8.4-5.5,14.6c0.2,0.7-0.6,2.2-1.4,2.5c-7.7,3.8-9.3,11.4-12,18.3
						C311,314.8,311,314.8,317.3,303.1z M88.1,121.6c3.8,1.2,7.5,2.6,11.4,3.6c4.3,1.2,8.6,2.6,12.3-1.9c9.9-11.8,15-25.4,17.1-40.4
						c0.8-5.5-1.8-8.5-6.3-10.5c-6.8-3-13.6-5.9-21.3-9.2C94,81.4,86.8,99.3,79.7,117c2.5,1.4,4.4,2.4,6.3,3.4
						c-11.9,11.3-23.8,22.7-35.6,33.9c0.7,1.1,0.8,1.7,1.2,2c0.4,0.4,1,0.5,1.4,0.9c5.1,5.6,5.1,5.6,9.9-0.1
						c1.1-1.2,2.2-2.4,3.2-3.6c7.6-8.8,15.3-17.5,22.9-26.4C90.8,125.1,91.5,122.9,88.1,121.6z M222.9,191.1
						c-6.5-3.4-13.2-5.2-20.8-3.5c-3,0.7-4.8,1.5-3.9,4.3c1.7,5.8-2,5.3-5.7,5.5c-0.1-0.8-0.3-1.5-0.3-2.2c-0.3-8.2-2-9.6-9.8-8.2
						c-1.1,0.2-2.2,0.7-3.2,0.6c-5.2-0.6-4.8,2.7-4.1,5.9c1.1,5.7,2.4,11.5,3.8,18c4.3-5.6,8.7-10.5,15.4-9c1.5,2.9,3.2,5.4,5.4,7.4
						c1.6,1.4,3.9,2,5.5,3.3c8.6,6.7,16.8,13.8,25.6,20.2c3.3,2.4,4.3,4,2.5,7.8c-0.7,1.5-0.2,4.6,0.9,5.6
						c12.3,10.2,24.9,20.1,37.4,30c3.4,2.7,7,2.4,9.8-0.8c5.8-6.6,11.4-13.4,17.4-20.4c-5.5-4.2-9.8-7.6-14.1-10.9
						c-3.1,3.6-5.4,6.7-8,9.5c-0.9,0.9-3.1,2-3.7,1.6c-6.1-4-13.5-6.7-16.1-14.5c3.2-3.9,6.2-7.5,9.2-11.2
						c12-14.4,23.8-29,35.9-43.2c8.3-9.7,11.6-9.8,20.8-1.5c2,1.8,3.4,4.2,5,6.4c-2.6,3.3-5.2,6.1-7.2,9.3c-0.7,1.1-0.6,4,0.3,4.7
						c4.1,3.4,8.6,6.4,13,9.5c4.1-5.1,7.7-9.6,11.5-14.1c7.1-8.4,7.5-11-0.7-18.2c-9.3-8.3-19.3-16-29.4-23.5
						c-8.2-6.1-8.4-5.8-15.2-1.1c-11-9-21.7-17.8-32.4-26.4c1.5-2.6,2.7-4.7,3.9-6.8c-2.6-1.9-4.7-3.5-7.4-5.6
						c-11.2,13.1-22.2,26-33.5,39.2c3.2,3.5,5.7,6.2,8.2,8.9c-2.5-0.4-4.8-1.1-6.5-2.5c-2.9-2.3-5.3-1.3-7.3,0.9
						c-3.6,3.9-6.9,8-10.2,12.1c-2,2.5-2.2,4.6,1.1,6.7c2.5,1.6,4.3,4.3,6.5,6.6L222.9,191.1z M369.2,288c-7.2-0.2-9.3-5.3-11.7-9.9
						c-0.8-1.7-0.5-4-0.6-6c0-0.1,2.1-0.7,2.4-0.3c1.2,1.7,2,3.6,3.1,5.3c0.8,1.4,1.4,3.2,2.6,4.2c4.3,3.8,9,7.2,13,11.2
						c3.2,3.1,5.4,7.3,8.6,10.3c1.2,1.1,4.4,1.4,6,0.6c7.3-3.5,11.8-9.3,13.3-19c-6.5-2.1-13.3-4.3-20.1-6.5c-0.8-0.3-1.7-0.5-2.4-1
						c-3.5-2.2-6.8-4.9-10.6-6.6c-7-3.2-14.2-6.2-22-5.6c-0.8,5.6-1.6,10.7-2.3,15.4c2.3,6,7,12.3,6.2,17.7
						c-1.4,9.9,3.6,17.1,5.6,24.6c6.3-3.7,12.5-7.3,19.2-11.2c-4-6.7-7.7-12.8-11.4-18.9c-0.5,0.2-0.9,0.4-1.4,0.6
						C367.5,291.6,368.2,290.2,369.2,288z M150.3,132.7c-4.6-1.7-8.9-2.9-13-4.8c-6-2.9-0.3-6.4,0-9.6c0-0.4,3.4-1,5-0.6
						c3.2,0.8,6.3,2.2,9.6,3.3c1.5-4.1,2.6-7.3,3.8-10.6c-3.5-1.4-6.7-2.8-9.9-4c-5.5-2.1-1.3-5.2-0.7-7.9c0.6-2.8,1.8-4.6,5.3-2.8
						c3.5,1.8,7.2,3,11,4.5c1.1-2.9,1.6-5.4,2.9-7.2c2.1-3,0.6-4.2-2-5.2c-6.7-2.7-13.4-5.3-20.1-8c-2.3-0.9-3.9-1-5,2.1
						c-2.7,7.7-5.9,15.2-9,22.7c-3.7,9.2-7.4,18.5-11.1,27.9c9.7,3.9,18.7,7.5,28.1,11.3C147.1,139.9,148.6,136.5,150.3,132.7z
						 M171.5,91.2c-4.7,19.7-9.2,38.5-13.7,57.5c3.9,1.5,7.6,2.5,11,4.2c3,1.6,4.4,0.9,6.1-1.9c9.4-15.3,18.9-30.5,28.8-46.3
						c-2.5-1.2-4.8-1.9-6.7-3.2c-4.7-2.9-7.1-0.8-9,3.5c-2.4,5.3-4.9,10.6-7.7,15.7c-1.6,3-3.7,5.6-5.6,8.4c1.7-8.3,4.2-16,6.6-23.7
						c2.8-8.8,2.8-8.8-6.1-12.1C174.1,93,173.3,92.3,171.5,91.2z M335,222.5c-4.4,2.6-8.1,4.8-11.7,7c0.2-3.1,1.2-5,2-7
						c2.1-5,1-8.1-4.2-10.5c-4.2-2-3.7,3-5.7,4.3c-1.2,0.7-1.9,2.1-2.8,3.3c-6,7.9-14.9,13.7-16.6,25.8c3.1,0.2,6.2,0.4,9.8,0.6
						c0.2,0.5,0.7,2,1.4,3.5c0.8,1.7,1.5,3.4,2.6,4.9c3.4,4.5,5.5,4.5,9.2,0.4c2.5-2.9,5.3-5.5,7.7-8.5c4.8-6,9.4-12.2,13.5-17.5
						C337.9,226,336.5,224.3,335,222.5z M55.7,19c0.6-0.2,1.1-0.5,1.7-0.7c2.7,1,5.5,1.8,8,3.1c1,0.5,1.9,1.9,2.1,3
						c1.3,7.2,5.2,12.9,11,17.9C78.3,31,77.3,19.9,76.2,8.8c0-0.4-0.7-0.9-1.2-1.1c-1-0.5-2.1-1.4-3.1-1.3C66.9,7,62,8.1,57,8.8
						c-1.7,0.2-3.5-0.2-5.6-0.3c-0.9,0.6-2.3,2.1-4.1,2.8c-10,4.2-10,4.1-3.5,13.1C49.3,32.3,55,39.8,65,43.6
						c0.1-2.8-0.1-5.5-1.2-7.8c-1.5-3-4-5.5-5.6-8.6C56.9,24.7,56.5,21.7,55.7,19z M112.9,33.4c0,4.4,0,10.1,0,16.1
						c1.8,0.7,3.7,1.3,5.4,2.1c1.1,0.5,2.9,1.3,3.1,2.2c1,4.8,4.9,5.1,8.1,6.3c3.2-4.2,6.2-7.9,9-11.7c0.8-1.1,1.3-2.4,1.6-3.7
						c0.8-3.8,1.1-7.7,2.1-11.5c0.9-3.7,2.9-7.1,3.5-10.8c0.2-1.5-1.4-4.2-3-5c-2.7-1.5-5-0.6-5.8,3c-1,4.9-2.3,9.8-3.5,14.7
						c-1.2,5-2.5,10-3.9,16c-1.4-2.2-1.8-3.7-2.6-4c-5.1-1.6-3.8-5-2.9-8.7c2-8.3,3.5-16.6,5.3-25.1c-3.5-1.1-6.6-2-10.5-3.2
						c-0.7,4.3-1,8-1.9,11.5C115.9,25.4,114.4,28.9,112.9,33.4z M414.4,254.4c-9.4-2.7-45.9-0.9-50,2.4c7.3,5.2,14.5,10.4,21.4,15.3
						c0.2-0.7,0.6-2.5,0.8-3.1c7.4,2.7,14.3,5.3,22,8.2C410.7,269.1,412.5,261.8,414.4,254.4z M319.9,262.9c4.4,3.7,7.5,3,10.3-1.7
						c2.2-3.6,4.7-5.2,8.1-0.5c2.5,3.4,6.3,4.5,9.6,0.3c3.7-4.7,7.5-9.3,10.9-14.3c0.7-1.1,0.6-3.9-0.2-4.6
						c-4.6-4.2-9.5-8-14.5-12.1C335.8,241.9,324.1,249.7,319.9,262.9z M330.4,319c3.5,0.2,6.6,0.3,9.7,0.6c7.6,0.8,8.6,0,8.9-7.8
						c0.1-1.8-0.6-3.6-0.7-5.4c-0.4-7-0.5-14-1-21c-0.2-2.7-0.6-5.4-1.6-7.9c-0.4-1.1-2.3-2.3-3.5-2.3c-1.1,0-2.8,1.2-3.4,2.3
						c-1.8,3.1-3.5,6.4-4.6,9.8C330.8,297.4,327,307.6,330.4,319z M311.6,205.5c-6.3-5.9-6.3-5.9-12.8-0.7c-0.7,0.6-1.6,1-2.3,1.5
						c-6.8,5.4-13.6,10.8-20.2,16.4c-1.2,1-1.2,3.3-1.8,5c2.1,0.5,4.2,1.5,6.3,1.5c2.1,0.1,4.3-0.7,7.9-1.4
						c-4.3,6.7-2.2,10.1,4.2,12.2C299,228.9,305.2,217.4,311.6,205.5z M74.7,111.4c-0.5-0.5-0.9-1-1.4-1.6
						c-6.5-0.8-9.1,0.3-13.9,5.4c-1.4,1.5-3.1,3.8-4.8,3.9c-4.7,0.3-7.3,3.4-10.5,6c-2.2,1.8-5.6,2.1-8.4,3.1
						c-1.9,0.5-3.3,2.4-4.4,4.4c-3.7,6.6-2.5,9.5,5.1,9.8c4,0.2,9.3-0.8,12-3.4C57.6,130.5,66,120.8,74.7,111.4z M89.5,155.7
						c1-2.4,1.6-4,2.4-5.5c3-5.2,6.1-10.3,9-15.5c0.6-1.1,0.3-2.7,0.4-4c-1.4,0-3.3-0.7-4,0c-3,2.5-5.8,5.2-8.2,8.3
						c-1.9,2.5-2.4,6.6-4.7,8.1c-8.6,5.3-13.3,13.6-18.9,22c2.5,1.9,5,3.3,7,5.3c3,2.9,4.9,2.2,6.7-1.1c2.3-4.2,4.8-8.3,7.1-12.2
						c1.8,1,3.2,1.9,4.5,2.6c1.5-3.1,2.7-5.7,4.1-8.5C93.3,155.2,91.9,155.4,89.5,155.7z M233,132c6.6-5.4,12.8-10.6,19.2-15.7
						c6.5-5.1,13.6-8.4,24.2-7c-3.4-5.9-5.7-10.6-8.7-14.6c-1.8-2.3-4-2.7-7.2,0.1c-6.2,5.6-13.2,10.2-16.6,18.3
						c-0.3,0.8-1.8,1.1-2.6,1.8c-3,2.1-6.3,3.8-8.9,6.3C229.2,124.3,228.8,128.1,233,132z M402.7,225.2
						c-11,11.5-27.4,11.7-37.6,23.6c3.2,1,6.3,1.5,9.4,1.3c7.6-0.4,15.3-1.1,22.9-1.8c3-0.3,6.1-0.7,9-1.7c3.5-1.2,4.8-3.8,3-7.5
						C407.5,235.1,405.6,231.1,402.7,225.2z M48,62.9c-11.1-10-23.3-14.8-36-19.6C9.6,47.3,6.9,51,5.2,55.1c-3,7-1.5,8.7,6.2,7.8
						c5.8-0.6,11.5-1.2,16.5,3c0.5,0.4,1.8,0.6,1.9,0.4c2.8-4.8,6.8-1.2,10.2-1.7C42.3,64.4,44.5,63.7,48,62.9z M219.2,119
						c13.8-12,28.8-20.8,39.3-34.6c-1.6-2-2.9-3.8-4.3-5.4c-3.6-4.4-5.1-4.2-8.6,0.1c-2.4,2.9-5.5,5.3-8,8.2
						c-2.4,2.7-4.4,5.7-6.5,8.7c-1.3,1.8-2.2,3.8-3.6,5.4C223.4,106.1,218,110.2,219.2,119z M396.7,212.9c-4-4.6-7.8-8.9-11.5-13.2
						c-2.4,1.9-3.9,2.8-4.9,4c-3.2,3.6-5.8,9.4-9.6,10.4c-6.5,1.7-9.5,6.4-13.7,10.2c-1.3,1.2-1.9,3.2-2.9,4.8
						c2.3,1.3,3.4,3.7,7.4,2c9.2-3.7,16.3-11.4,26.5-13.1C391,217.6,393.6,214.9,396.7,212.9z M167.7,164c-0.6-0.2-1.2-0.3-1.7-0.5
						c-5.1,14.9-10.2,29.8-15.3,44.7c5.7,1.2,10.1,2.1,14.7,3.1c2.4-7.6,5.6-14.6,3.1-22.6c-0.3-0.9-0.1-2.2,0.4-3
						C172.9,178.2,171.2,171.1,167.7,164z M364.5,183.2c-1.4,2.6-2.5,5.4-4.2,7.6c-6,7.8-12.2,15.3-18.2,23.1
						c-1,1.3-0.9,3.5-1.3,5.2c2.1,0.2,4.5,1.1,6.4,0.6c5.8-1.5,8.9-6.3,12.3-10.9c1.2-1.6,3.1-3.9,4.6-3.9c7.7,0,9.7-6.3,11.8-11.3
						c0.6-1.5-4.4-5.5-7-8.1C367.8,184.4,366.1,184,364.5,183.2z M29.6,82.6c5.1-0.9,9.3-1.4,13.2-2.6c1.7-0.5,3.3-2.5,4-4.2
						c0.3-0.8-1.6-3.4-2.8-3.7C30.7,69,17.2,68.1,3.3,69.8c0.5,4.5,0.9,8.6,1.4,13.3c4.7-0.4,9.4-0.6,14.1-1.3
						C23,81.2,27.4,78.8,29.6,82.6z M303.6,258.3c-3.4,4.4-6.7,8.2-9.5,12.4c-4.9,7.2-9.6,14.5-14,22c-0.6,1,0.2,3.9,1.3,4.6
						c1.8,1.3,5.9,2.7,6.4,2.1c4.3-5.7,12.2-9.7,10.2-18.4c8-4.2,9.3-12.4,13.1-19.2C308.6,260.6,306.3,259.6,303.6,258.3z
						 M117.8,144.8c-0.9,0.5-1.6,0.7-2.1,1.2c-10.9,10.2-20.6,21.4-27.9,34.6c-0.6,1-0.8,3.1-0.2,3.8c4.7,5.7,8.1,5.4,12-0.8
						c0.2-0.3,0.5-0.6,0.6-0.9c6.4-11.1,12.9-22.2,19.2-33.4c0.5-0.8,0.6-2.1,0.4-3.1C119.7,145.6,118.5,145.2,117.8,144.8z
						 M51.4,86.2c-0.2-0.6-0.3-1.2-0.5-1.9c-4.1,0.5-8.2,0.8-12.2,1.6c-5,1.1-10,2.4-14.9,4c-5.8,1.8-11.5,4-18,6.4
						c3.2,4.5,5.6,8.1,8,11.4c2.7-1.3,4.9-2.3,6.9-3.5c3.5-2.1,7-4.3,10.5-6.4c1.7-1,3.4-2.4,5.2-2.7C42.7,94.2,48.1,92,51.4,86.2z
						 M156,160.1c-13.4,11.6-17.8,28.3-26.5,43.6c4.5,0.9,7.9,1.7,11.7,2.5C146,190.6,155.3,176.9,156,160.1z M199.5,100.5
						c2.7-1.7,4.5-2.3,5.7-3.6c8.8-9.3,17.4-18.9,26.4-28.1c3.9-4,1.4-5.7-1.6-8c-3.2-2.5-6-3-7.6,1.4C218.8,72.4,209,78.6,205,88.5
						c-0.3,0.6-1.6,0.8-2.2,1.4c-1.6,1.7-3.6,3.3-4.5,5.3C197.8,96.4,199,98.3,199.5,100.5z M104.2,11.4c-1.8-0.8-5-2.9-8.5-3.6
						c-2.7-0.6-7.8-0.2-8.3,1.1c-1.1,2.8,0.1,6.4,0.5,9.7c0.1,0.5,0.6,1,0.6,1.5c0.1,2.1,0.6,4.5-0.1,6.3
						c-2.3,5.8,0.3,14.1,6.8,18.1c1.3-5.5,2.4-10.8,3.8-16C100.4,23.2,102.1,18,104.2,11.4z M217.5,53c-2.8-2.2-4.3-3.4-5.9-4.6
						c-2.8-2.1-4.9-2.8-6.9,1.5c-4.9,10.5-10.4,20.6-15.4,31.1c-1.1,2.3-1.1,5.2-1.5,7.8c0.7,0.2,1.4,0.4,2,0.6
						C199,77.4,208.1,65.4,217.5,53z M30.1,128.4c3.1-2.7,6-5.3,9.3-8.2c0.8,2.1,1.3,3.3,2.2,5.8c4.3-11.2,12.2-17.5,22.9-22.9
						c-3.8-1.4-7.2-3.8-8.9-2.9c-9.4,4.7-18.6,10-27.4,15.6c-5,3.2-4.8,5.6-0.9,10.1C28,126.8,29.1,127.5,30.1,128.4z M113.2,197.3
						c0.7-0.9,1.3-1.6,1.7-2.4c5.5-13,11.1-26,16.4-39.1c0.4-1.1-1.1-3-2.1-5.4c-1.8,2.7-2.7,4-3.5,5.4
						c-6.6,10.9-13.3,21.7-19.7,32.6c-0.7,1.3-0.8,4.1,0.1,5C108,195,110.7,195.9,113.2,197.3z M175.1,41.6c-2.5,0-4.9-0.7-6.3,0.2
						c-2.5,1.6-1.1,3.9,0.1,6.1c1.2,2.3,2.9,6.7,2.1,7.3c-5.6,4.5-4.6,10.7-5.9,16.6c5.7-0.2,7.2-4.2,8.9-8c1.4-3.1,2.1-6.6,3.8-9.5
						c3.3-5.4,7.2-10.5,10.8-15.6C180.1,31.4,180.1,31.4,175.1,41.6z M28.4,23.5c-3.4,3.7-6.5,7-10.4,11.3c4.1,1.6,7.4,2.9,10.6,4.1
						c0.9,0.4,2.4,0.5,2.7,1.2c3.9,8.6,12.6,9,20.9,12.9C47.7,39.1,37.3,32.2,28.4,23.5z M162.4,23.8c-1.5,4.1-3.2,7.8-4.3,11.7
						c-1.6,5.8-0.8,12-5.2,17.5c-2.7,3.4-3.2,9.2,0,14.3c11.4-11.1,11.3-27,18.9-39.7C168.6,26.4,166.2,25.4,162.4,23.8z
						 M336.8,273.9c1.3-2,2.6-3.5,2.4-3.7c-1.6-1.9-3.5-3.7-5.4-5.4c-0.9,1.2-2.8,3-2.5,3.4C332.6,270.1,334.5,271.6,336.8,273.9z
						 M219.7,99.7c0.7,0.1,1.3,0.2,2,0.3c0.7-3,1.4-6,2.5-10.4c-3.4,1.4-5.1,2.1-7.3,2.9C218,95.2,218.8,97.4,219.7,99.7z"/>
					<path d="M222.8,191.2c-2.1-2.2-3.9-5-6.5-6.6c-3.3-2.1-3.1-4.2-1.1-6.7c3.3-4.1,6.7-8.2,10.2-12.1c2-2.2,4.4-3.2,7.3-0.9
						c1.7,1.4,4,2.1,6.5,2.5c-2.5-2.7-5-5.5-8.2-8.9c11.2-13.2,22.3-26.1,33.5-39.2c2.8,2.1,4.9,3.6,7.4,5.6
						c-1.2,2.2-2.4,4.3-3.9,6.8c10.6,8.7,21.3,17.4,32.4,26.4c6.8-4.7,7-5,15.2,1.1c10.1,7.5,20,15.1,29.4,23.5
						c8.2,7.3,7.8,9.8,0.7,18.2c-3.8,4.4-7.4,9-11.5,14.1c-4.4-3.2-8.9-6.1-13-9.5c-0.9-0.7-1-3.6-0.3-4.7c2-3.2,4.6-6,7.2-9.3
						c-1.7-2.1-3.1-4.6-5-6.4c-9.2-8.3-12.5-8.2-20.8,1.5c-12.2,14.3-24,28.8-35.9,43.2c-3,3.7-6,7.3-9.2,11.2
						c2.6,7.8,10.1,10.5,16.1,14.5c0.6,0.4,2.8-0.7,3.7-1.6c2.6-2.8,5-5.8,8-9.5c4.3,3.3,8.6,6.7,14.1,10.9
						c-5.9,7-11.5,13.8-17.4,20.4c-2.8,3.2-6.4,3.5-9.8,0.8c-12.5-9.9-25.1-19.8-37.4-30c-1.1-0.9-1.6-4.1-0.9-5.6
						c1.7-3.7,0.7-5.4-2.5-7.8c-8.8-6.4-17.1-13.5-25.6-20.2c-1.7-1.3-4-1.9-5.5-3.3c-2.2-2-4-4.5-5.4-7.4c-6.8-1.5-11.1,3.4-15.4,9
						c-1.4-6.5-2.7-12.2-3.8-18c-0.6-3.2-1.1-6.6,4.1-5.9c1,0.1,2.1-0.4,3.2-0.6c7.8-1.4,9.6,0.1,9.8,8.2c0,0.7,0.2,1.4,0.3,2.2
						c3.6-0.2,7.4,0.3,5.7-5.5c-0.8-2.8,1-3.6,3.9-4.3c7.6-1.7,14.2,0.1,20.8,3.5c2.7,3.5,5,7.4,8.2,10.2c4.3,3.7,9.4,6.6,14.1,9.9
						c3.5,2.4,4.5,5.4,3,9.4c3.3-3.8,6.7-7.7,10-11.5c-5.5,4.7-9.6,1.2-13.6-1.7C237.2,202.1,230,196.6,222.8,191.2z M285.9,175.6
						c2.5-2.2,5.1-3.7,6.3-5.9c0.9-1.7,0.8-5.5-0.4-6.4c-8.2-6.5-16.9-12.5-25.3-18.8c-5.8-4.4-5.7-4.5-9.9,1.6
						C265.4,156.5,282.3,158.7,285.9,175.6z M274.2,175.7c-6.4-9.2-14.7-15-23.2-20.4c-0.4-0.3-1.2-0.5-1.6-0.3
						c-1.1,0.5-2.8,1-2.9,1.8c-0.2,1.1,0.4,2.8,1.2,3.5c3.3,3,6.7,6,10.4,8.6C262.6,172.1,266.2,177.4,274.2,175.7z M251.2,198.8
						c0.1-7.8-14.8-21.3-21.5-21.6c-0.9,0-2.4,0.8-2.5,1.4c-0.1,0.9,0.6,2.1,1.4,2.8c4,3.4,8,6.8,12.2,10
						C244.2,194.1,247.8,196.4,251.2,198.8z M225.8,213c0.8,6,4.9,6.9,9.5,7.2C235.2,213.9,232.6,211.8,225.8,213z M260.6,184.9
						c-0.3,0.3-0.6,0.6-1,0.9c4.3,2.4,8.5,4.9,12.8,7.3c-0.8,1-1.5,2.1-2.3,3.1c1.6-2.1,3.2-4.1,3.9-5
						C269.2,189,264.9,187,260.6,184.9z M210.6,198.4c-0.4,0.6-0.8,1.1-1.2,1.7c2,5.3,4,6.4,9.7,4.4
						C215.8,202.1,213.2,200.3,210.6,198.4z"/>
					<path d="M86,120.4c-1.9-1-3.8-2.1-6.3-3.4c7.1-17.7,14.3-35.6,21.6-53.8c7.7,3.3,14.5,6.2,21.3,9.2c4.6,2,7.1,5,6.3,10.5
						c-2.2,15-7.2,28.7-17.1,40.4c-3.8,4.5-8,3.1-12.3,1.9c-3.8-1.1-7.6-2.4-11.4-3.6C87.4,121.2,86.7,120.8,86,120.4z M109.9,78.3
						c-2.8,6.4-5.6,12.5-8.1,18.6c-1.4,3.3-2.8,6.6-3.5,10.1c-0.4,2,0.6,4.2,0.9,6.4c2.1-1.1,5-1.6,6.3-3.4
						c6.6-8.8,7.6-19.6,10.6-30c-1.5-0.4-2.4-0.6-3.3-0.8C111.7,79,110.8,78.6,109.9,78.3z"/>
					<path d="M369.2,288c-1.1,2.2-1.7,3.6-2.4,5c0.5-0.2,0.9-0.4,1.4-0.6c3.7,6.1,7.4,12.2,11.4,18.9c-6.8,3.9-12.9,7.5-19.2,11.2
						c-2-7.5-7-14.7-5.6-24.6c0.8-5.5-3.9-11.7-6.2-17.7c0.7-4.7,1.5-9.8,2.3-15.4c7.9-0.6,15.1,2.3,22,5.6c3.7,1.7,7,4.4,10.6,6.6
						c0.7,0.5,1.6,0.7,2.4,1c6.8,2.2,13.6,4.4,20.1,6.5c-1.5,9.7-6,15.6-13.3,19c-1.6,0.8-4.9,0.5-6-0.6c-3.2-3.1-5.4-7.2-8.6-10.3
						c-4.1-4-8.8-7.4-13-11.2c-1.2-1.1-1.8-2.8-2.6-4.2c-1-1.8-1.9-3.7-3.1-5.3c-0.2-0.3-2.4,0.2-2.4,0.3c0,2-0.3,4.3,0.6,6
						C359.9,282.7,362.1,287.8,369.2,288z"/>
					<path d="M150.3,132.7c-1.7,3.9-3.2,7.3-4.9,11c-9.4-3.8-18.4-7.4-28.1-11.3c3.7-9.4,7.4-18.6,11.1-27.9c3-7.6,6.2-15.1,9-22.7
						c1.1-3.1,2.6-3,5-2.1c6.7,2.7,13.4,5.3,20.1,8c2.5,1,4.1,2.2,2,5.2c-1.3,1.9-1.7,4.3-2.9,7.2c-3.8-1.5-7.6-2.7-11-4.5
						c-3.5-1.8-4.7,0-5.3,2.8c-0.6,2.6-4.8,5.7,0.7,7.9c3.2,1.2,6.4,2.6,9.9,4c-1.2,3.4-2.3,6.5-3.8,10.6c-3.3-1.2-6.4-2.6-9.6-3.3
						c-1.6-0.4-5,0.2-5,0.6c-0.3,3.2-6.1,6.7,0,9.6C141.3,129.7,145.7,131,150.3,132.7z"/>
					<path d="M171.5,91.2c1.8,1.1,2.7,1.8,3.7,2.1c8.9,3.3,8.9,3.3,6.1,12.1c-2.5,7.7-4.9,15.4-6.6,23.7c1.9-2.8,4-5.4,5.6-8.4
						c2.8-5.1,5.2-10.4,7.7-15.7c1.9-4.2,4.3-6.4,9-3.5c2,1.2,4.2,2,6.7,3.2c-9.8,15.8-19.4,31-28.8,46.3c-1.7,2.8-3.1,3.5-6.1,1.9
						c-3.4-1.7-7.1-2.8-11-4.2C162.3,129.7,166.8,110.9,171.5,91.2z"/>
					<path d="M335,222.5c1.4,1.8,2.8,3.5,5,6.2c-4.1,5.4-8.7,11.5-13.5,17.5c-2.4,3-5.2,5.7-7.7,8.5c-3.7,4.2-5.9,4.2-9.2-0.4
						c-1.1-1.5-1.8-3.2-2.6-4.9c-0.7-1.5-1.2-3-1.4-3.5c-3.6-0.2-6.7-0.4-9.8-0.6c1.7-12.1,10.7-17.9,16.6-25.8
						c0.9-1.2,1.7-2.6,2.8-3.3c2.1-1.3,1.5-6.3,5.7-4.3c5.2,2.4,6.3,5.4,4.2,10.5c-0.8,2-1.8,3.9-2,7
						C327,227.3,330.7,225.1,335,222.5z"/>
					<path d="M55.7,19c0.8,2.8,1.2,5.7,2.5,8.3c1.5,3,4.1,5.5,5.6,8.6c1.1,2.3,1.3,5,1.2,7.8C55,39.8,49.3,32.3,43.8,24.5
						c-6.4-9.1-6.5-9,3.5-13.1c1.8-0.7,3.2-2.2,4.1-2.8c2.1,0.1,3.9,0.6,5.6,0.3c5-0.7,9.9-1.8,14.9-2.5c1-0.1,2.1,0.8,3.1,1.3
						c0.5,0.2,1.1,0.7,1.2,1.1c1.1,11.1,2.1,22.2,2.3,33.5c-5.8-5-9.7-10.6-11-17.9c-0.2-1.1-1.1-2.5-2.1-3c-2.6-1.3-5.3-2.1-8-3.1
						C56.8,18.5,56.2,18.7,55.7,19z"/>
					<path d="M112.9,33.4c1.6-4.5,3.1-8,4-11.7c0.9-3.6,1.2-7.3,1.9-11.5c3.9,1.2,7,2.1,10.5,3.2c-1.8,8.5-3.3,16.8-5.3,25.1
						c-0.9,3.7-2.2,7,2.9,8.7c0.8,0.3,1.2,1.8,2.6,4c1.5-6,2.7-11,3.9-16c1.2-4.9,2.5-9.8,3.5-14.7c0.7-3.7,3.1-4.5,5.8-3
						c1.5,0.8,3.2,3.5,3,5c-0.6,3.7-2.5,7.1-3.5,10.8c-1,3.8-1.3,7.7-2.1,11.5c-0.3,1.3-0.8,2.6-1.6,3.7c-2.8,3.8-5.7,7.5-9,11.7
						c-3.2-1.1-7.1-1.4-8.1-6.3c-0.2-0.9-1.9-1.7-3.1-2.2c-1.8-0.8-3.7-1.4-5.4-2.1C112.9,43.5,112.9,37.8,112.9,33.4z"/>
					<path d="M414.4,254.4c-1.9,7.4-3.7,14.7-5.7,22.7c-7.7-2.8-14.6-5.4-22-8.2c-0.2,0.7-0.6,2.4-0.8,3.1
						c-6.9-5-14.1-10.1-21.4-15.3C368.5,253.4,405,251.6,414.4,254.4z"/>
					<path d="M319.9,262.9c4.3-13.2,15.9-21,24.2-32.9c5.1,4.1,10,7.9,14.5,12.1c0.8,0.8,0.9,3.6,0.2,4.6
						c-3.4,4.9-7.2,9.6-10.9,14.3c-3.3,4.1-7.1,3.1-9.6-0.3c-3.4-4.7-6-3.1-8.1,0.5C327.4,265.9,324.2,266.6,319.9,262.9z
						 M350.2,244.2c-7-1.2-8.3-0.1-8.4,6.5C344.6,248.6,347,246.7,350.2,244.2z"/>
					<path d="M330.4,319c-3.3-11.4,0.4-21.6,3.8-31.7c1.1-3.4,2.8-6.6,4.6-9.8c0.6-1.1,2.2-2.3,3.4-2.3c1.2,0,3.1,1.2,3.5,2.3
						c0.9,2.5,1.4,5.2,1.6,7.9c0.5,7,0.6,14,1,21c0.1,1.8,0.8,3.6,0.7,5.4c-0.2,7.8-1.3,8.6-8.9,7.8
						C337,319.3,333.9,319.2,330.4,319z"/>
					<path d="M311.6,205.5c-6.4,11.8-12.6,23.4-18.7,34.8c-6.4-2.1-8.5-5.5-4.2-12.2c-3.6,0.7-5.7,1.4-7.9,1.4
						c-2.1-0.1-4.2-1-6.3-1.5c0.6-1.7,0.6-4,1.8-5c6.6-5.7,13.4-11,20.2-16.4c0.7-0.6,1.6-1,2.3-1.5
						C305.2,199.7,305.2,199.7,311.6,205.5z"/>
					<path d="M74.7,111.4c-8.7,9.3-17.1,19-26.3,27.8c-2.7,2.6-8,3.5-12,3.4c-7.6-0.3-8.8-3.3-5.1-9.8c1.2-2,2.5-3.9,4.4-4.4
						c2.8-1,6.2-1.4,8.4-3.1c3.2-2.6,5.8-5.7,10.5-6c1.7-0.1,3.4-2.4,4.8-3.9c4.7-5,7.4-6.1,13.9-5.4
						C73.7,110.4,74.2,110.9,74.7,111.4z"/>
					<path d="M89.5,155.7c2.5-0.3,3.8-0.4,5.4-0.6c-1.4,2.9-2.6,5.4-4.1,8.5c-1.3-0.7-2.7-1.6-4.5-2.6c-2.3,4-4.8,8-7.1,12.2
						c-1.8,3.3-3.8,4-6.7,1.1c-2-2-4.5-3.5-7-5.3c5.6-8.4,10.3-16.7,18.9-22c2.3-1.4,2.8-5.6,4.7-8.1c2.4-3,5.2-5.8,8.2-8.3
						c0.8-0.7,2.7,0,4,0c-0.1,1.3,0.2,2.9-0.4,4c-2.9,5.2-6,10.3-9,15.5C91,151.7,90.5,153.3,89.5,155.7z"/>
					<path d="M233,132c-4.2-3.9-3.8-7.7-0.6-10.9c2.5-2.5,5.9-4.2,8.9-6.3c0.9-0.6,2.3-0.9,2.6-1.8c3.4-8.1,10.4-12.8,16.6-18.3
						c3.1-2.8,5.4-2.4,7.2-0.1c3.1,4.1,5.3,8.8,8.7,14.6c-10.5-1.4-17.7,1.9-24.2,7C245.9,121.4,239.7,126.6,233,132z"/>
					<path d="M402.7,225.2c2.9,5.9,4.7,9.9,6.7,13.8c1.8,3.7,0.5,6.3-3,7.5c-2.9,1-6,1.4-9,1.7c-7.6,0.7-15.2,1.4-22.9,1.8
						c-3.1,0.2-6.2-0.3-9.4-1.3C375.3,236.9,391.7,236.7,402.7,225.2z"/>
					<path d="M48,62.9c-3.5,0.8-5.7,1.5-8,1.8c-3.4,0.5-7.5-3.1-10.2,1.7c-0.1,0.2-1.4-0.1-1.9-0.4c-4.9-4.2-10.7-3.7-16.5-3
						c-7.8,0.9-9.2-0.8-6.2-7.8C6.9,51,9.6,47.3,12,43.2C24.7,48.1,36.9,52.8,48,62.9z"/>
					<path d="M317.3,303.1c-6.3,11.7-6.3,11.7-19.4,4.5c2.7-6.9,4.3-14.5,12-18.3c0.7-0.4,1.5-1.8,1.4-2.5
						c-1.6-6.2,1.9-10.5,5.5-14.6c1.5-1.8,4.7-4.8,5.3-4.4c3.7,2.3,3.2,5.8,1.9,9.6c-2.5,7.1-4.8,14.3-6.9,21.5
						C316.6,300.1,317.2,301.7,317.3,303.1L317.3,303.1z"/>
					<path d="M219.2,119c-1.2-8.8,4.2-12.9,8.4-17.7c1.4-1.6,2.3-3.6,3.6-5.4c2.1-2.9,4.1-6,6.5-8.7c2.5-2.9,5.5-5.2,8-8.2
						c3.5-4.3,5-4.4,8.6-0.1c1.4,1.7,2.7,3.4,4.3,5.4C248.1,98.2,233,107,219.2,119z"/>
					<path d="M396.7,212.9c-3.1,1.9-5.7,4.6-8.7,5.1c-10.2,1.7-17.3,9.4-26.5,13.1c-4.1,1.6-5.2-0.8-7.4-2c0.9-1.6,1.6-3.6,2.9-4.8
						c4.2-3.8,7.2-8.5,13.7-10.2c3.8-1,6.4-6.8,9.6-10.4c1.1-1.2,2.5-2.1,4.9-4C389,204,392.7,208.4,396.7,212.9z"/>
					<path d="M167.7,164c3.4,7.1,5.2,14.2,1.1,21.8c-0.5,0.8-0.7,2.1-0.4,3c2.5,7.9-0.7,15-3.1,22.6c-4.6-1-9-1.9-14.7-3.1
						c5.1-14.9,10.2-29.8,15.3-44.7C166.6,163.7,167.1,163.8,167.7,164z"/>
					<path d="M364.5,183.2c1.6,0.8,3.3,1.3,4.4,2.3c2.7,2.6,7.6,6.6,7,8.1c-2.1,5-4.1,11.3-11.8,11.3c-1.6,0-3.5,2.2-4.6,3.9
						c-3.3,4.6-6.5,9.4-12.3,10.9c-2,0.5-4.3-0.3-6.4-0.6c0.4-1.8,0.3-3.9,1.3-5.2c5.9-7.8,12.2-15.3,18.2-23.1
						C362,188.5,363,185.8,364.5,183.2z"/>
					<path d="M29.6,82.6c-2.1-3.8-6.6-1.4-10.9-0.8c-4.6,0.7-9.4,0.9-14.1,1.3c-0.5-4.7-0.9-8.7-1.4-13.3c14-1.7,27.4-0.8,40.7,2.3
						c1.3,0.3,3.1,2.9,2.8,3.7c-0.6,1.7-2.3,3.6-4,4.2C38.9,81.2,34.7,81.6,29.6,82.6z"/>
					<path d="M303.6,258.3c2.6,1.2,4.9,2.3,7.5,3.5c-3.8,6.8-5.1,15-13.1,19.2c1.9,8.7-5.9,12.7-10.2,18.4c-0.5,0.6-4.5-0.8-6.4-2.1
						c-1.1-0.7-1.9-3.6-1.3-4.6c4.4-7.5,9.1-14.8,14-22C297,266.6,300.3,262.7,303.6,258.3z"/>
					<path d="M117.8,144.8c0.7,0.5,1.9,0.8,2.1,1.4c0.3,0.9,0.1,2.2-0.4,3.1c-6.4,11.2-12.8,22.3-19.2,33.4
						c-0.2,0.3-0.4,0.6-0.6,0.9c-3.9,6.3-7.3,6.6-12,0.8c-0.6-0.8-0.4-2.8,0.2-3.8c7.3-13.1,17-24.4,27.9-34.6
						C116.2,145.5,116.9,145.3,117.8,144.8z"/>
					<path d="M86,120.4c0.7,0.4,1.4,0.8,2.1,1.2c3.4,1.4,2.7,3.5,0.9,5.6c-7.6,8.8-15.2,17.6-22.9,26.4c-1.1,1.2-2.2,2.4-3.2,3.6
						c-4.8,5.7-4.8,5.7-9.9,0.1c-0.4-0.4-1-0.5-1.4-0.9c-0.4-0.4-0.6-0.9-1.2-2C62.2,143.1,74.1,131.8,86,120.4z"/>
					<path d="M51.4,86.2c-3.2,5.7-8.6,8-15,8.9c-1.8,0.3-3.6,1.7-5.2,2.7c-3.5,2.1-6.9,4.4-10.5,6.4c-2.1,1.2-4.3,2.1-6.9,3.5
						c-2.3-3.3-4.8-6.9-8-11.4c6.6-2.3,12.2-4.5,18-6.4c4.9-1.6,9.9-2.9,14.9-4c4-0.8,8.1-1.1,12.2-1.6C51.1,85,51.2,85.6,51.4,86.2
						z"/>
					<path d="M156,160.1c-0.6,16.7-10,30.4-14.8,46c-3.8-0.8-7.3-1.5-11.7-2.5C138.2,188.5,142.6,171.8,156,160.1z"/>
					<path d="M199.5,100.5c-0.6-2.2-1.7-4.2-1.2-5.4c0.9-2,2.9-3.6,4.5-5.3c0.6-0.6,1.9-0.7,2.2-1.4c4-10,13.8-16.1,17.4-26.4
						c1.6-4.5,4.4-3.9,7.6-1.4c3,2.3,5.5,4,1.6,8c-9,9.2-17.5,18.8-26.4,28.1C204,98.2,202.2,98.9,199.5,100.5z"/>
					<path d="M104.2,11.4c-2,6.7-3.8,11.9-5.2,17.1c-1.4,5.2-2.5,10.4-3.8,16c-6.5-4-9-12.2-6.8-18.1c0.7-1.9,0.2-4.2,0.1-6.3
						c0-0.5-0.6-1-0.6-1.5c-0.3-3.3-1.5-6.9-0.5-9.7c0.5-1.3,5.6-1.7,8.3-1.1C99.2,8.4,102.3,10.5,104.2,11.4z"/>
					<path d="M217.5,53c-9.4,12.4-18.6,24.4-27.7,36.4c-0.7-0.2-1.4-0.4-2-0.6c0.5-2.6,0.4-5.5,1.5-7.8c5-10.4,10.5-20.6,15.4-31.1
						c2-4.3,4.1-3.6,6.9-1.5C213.2,49.6,214.8,50.8,217.5,53z"/>
					<path d="M30.1,128.4c-1-0.9-2-1.6-2.8-2.5c-3.9-4.5-4-7,0.9-10.1c8.9-5.6,18.1-10.9,27.4-15.6c1.7-0.9,5.1,1.6,8.9,2.9
						c-10.7,5.4-18.6,11.6-22.9,22.9c-0.9-2.4-1.4-3.7-2.2-5.8C36.1,123,33.1,125.6,30.1,128.4z"/>
					<path d="M113.2,197.3c-2.5-1.3-5.2-2.2-7-4c-0.9-0.8-0.9-3.7-0.1-5c6.4-11,13.1-21.8,19.7-32.6c0.8-1.4,1.7-2.7,3.5-5.4
						c1,2.5,2.5,4.4,2.1,5.4c-5.3,13.1-10.9,26.1-16.4,39.1C114.5,195.7,113.9,196.3,113.2,197.3z"/>
					<path d="M175.1,41.6c5.1-10.1,5.1-10.1,13.5-2.9c-3.6,5.1-7.5,10.2-10.8,15.6c-1.8,2.9-2.4,6.4-3.8,9.5c-1.7,3.8-3.2,7.8-8.9,8
						c1.3-5.9,0.3-12.1,5.9-16.6c0.8-0.6-0.8-5-2.1-7.3c-1.2-2.3-2.6-4.5-0.1-6.1C170.2,40.8,172.6,41.6,175.1,41.6z"/>
					<path d="M28.4,23.5c8.9,8.7,19.3,15.7,23.8,29.6c-8.3-3.9-16.9-4.4-20.9-12.9c-0.3-0.7-1.8-0.9-2.7-1.2
						c-3.2-1.3-6.5-2.5-10.6-4.1C21.9,30.5,25,27.2,28.4,23.5z"/>
					<path d="M162.4,23.8c3.7,1.5,6.2,2.5,9.3,3.8c-7.5,12.7-7.4,28.6-18.9,39.7c-3.2-5.2-2.7-10.9,0-14.3
						c4.4-5.5,3.6-11.6,5.2-17.5C159.2,31.6,160.9,27.9,162.4,23.8z"/>
					<path d="M317.3,303.1c2.9,1.8,6.1,3.1,8.4,5.4c1.1,1.2,0.5,4.1,0,6.3C322.9,310.6,314.8,310.4,317.3,303.1
						C317.3,303.1,317.3,303.1,317.3,303.1z"/>
					<path d="M336.8,273.9c-2.3-2.3-4.2-3.9-5.4-5.8c-0.3-0.4,1.6-2.2,2.5-3.4c1.8,1.8,3.7,3.5,5.4,5.4
						C339.4,270.4,338.1,271.9,336.8,273.9z"/>
					<path d="M219.7,99.7c-0.9-2.3-1.8-4.5-2.8-7.2c2.1-0.9,3.8-1.5,7.3-2.9c-1,4.4-1.8,7.4-2.5,10.4
						C221,99.8,220.4,99.8,219.7,99.7z"/>
					<path fill="#FFFFFF" d="M285.9,175.6c-3.6-16.8-20.4-19.1-29.3-29.5c4.2-6.1,4.1-6,9.9-1.6c8.4,6.3,17.1,12.3,25.3,18.8
						c1.2,0.9,1.2,4.7,0.4,6.4C291,171.9,288.3,173.4,285.9,175.6z"/>
					<path fill="#FFFFFF" d="M274.2,175.7c-8.1,1.7-11.7-3.6-16.2-6.9c-3.6-2.6-7-5.6-10.4-8.6c-0.8-0.8-1.5-2.5-1.2-3.5
						c0.2-0.8,1.9-1.3,2.9-1.8c0.4-0.2,1.1,0,1.6,0.3C259.5,160.7,267.8,166.5,274.2,175.7z"/>
					<path fill="#FFFFFF" d="M251.2,198.8c-3.5-2.4-7.1-4.7-10.4-7.3c-4.2-3.2-8.2-6.6-12.2-10c-0.8-0.6-1.5-1.9-1.4-2.8
						c0.1-0.6,1.6-1.5,2.5-1.4C236.4,177.5,251.3,191,251.2,198.8z"/>
					<path fill="#FFFFFF" d="M222.8,191.2c7.3,5.4,14.5,10.8,21.8,16.1c4,2.9,8.2,6.4,13.6,1.7c-3.3,3.8-6.7,7.7-10,11.5
						c1.5-4,0.5-7.1-3-9.4c-4.8-3.2-9.8-6.1-14.1-9.9c-3.3-2.8-5.5-6.8-8.2-10.2C222.9,191.1,222.8,191.2,222.8,191.2z"/>
					<path fill="#FFFFFF" d="M225.8,213c6.8-1.2,9.4,0.9,9.5,7.2C230.6,219.8,226.6,218.9,225.8,213z"/>
					<path fill="#FFFFFF" d="M260.6,184.9c4.3,2,8.6,4,13.5,6.3c-0.7,0.9-2.3,2.9-3.9,5c0.8-1,1.5-2.1,2.3-3.1
						c-4.3-2.4-8.5-4.9-12.8-7.3C259.9,185.5,260.2,185.2,260.6,184.9z"/>
					<path fill="#FFFFFF" d="M210.6,198.4c2.6,1.9,5.2,3.7,8.4,6.1c-5.7,2-7.7,0.9-9.7-4.4C209.8,199.5,210.2,199,210.6,198.4z"/>
					<path fill="#FFFFFF" d="M109.9,78.3c0.9,0.3,1.9,0.6,2.9,0.9c0.9,0.3,1.7,0.4,3.3,0.8c-3,10.4-4,21.2-10.6,30
						c-1.3,1.7-4.2,2.3-6.3,3.4c-0.4-2.1-1.3-4.4-0.9-6.4c0.7-3.5,2.1-6.8,3.5-10.1C104.3,90.8,107,84.7,109.9,78.3z"/>
					<path fill="#FFFFFF" d="M350.2,244.2c-3.2,2.5-5.6,4.4-8.4,6.5C341.9,244.2,343.2,243,350.2,244.2z"/>
				</g>
			</g>
			<rect x="208" y="-7" fill="#070074" width="4" height="60.6"/>
			<rect x="208" y="210.4" fill="#070074" width="4" height="120"/>
		</g>
	</g>
</mask>
<rect x="-14" y="-14" mask="url(#SVGID_1_)" fill="#EEF3F5" width="463" height="361"/>
</svg>
