<?xml version="1.0" encoding="utf-8"?>
<!-- Generator: Adobe Illustrator 18.0.0, SVG Export Plug-In . SVG Version: 6.00 Build 0)  -->
<!DOCTYPE svg PUBLIC "-//W3C//DTD SVG 1.1//EN" "http://www.w3.org/Graphics/SVG/1.1/DTD/svg11.dtd">
<svg version="1.1" id="Layer_1" xmlns="http://www.w3.org/2000/svg" xmlns:xlink="http://www.w3.org/1999/xlink" x="0px" y="0px"
	 viewBox="8.5 0 420 325" enable-background="new 8.5 0 420 325" xml:space="preserve">
<defs>
	<filter id="Adobe_OpacityMaskFilter" filterUnits="userSpaceOnUse" x="-16.6" y="-18.9" width="476.1" height="434.8">
		<feFlood  style="flood-color:white;flood-opacity:1" result="back"/>
		<feBlend  in="SourceGraphic" in2="back" mode="normal"/>
	</filter>
</defs>
<mask maskUnits="userSpaceOnUse" x="-16.6" y="-18.9" width="476.1" height="434.8" id="SVGID_1_">
	<g filter="url(#Adobe_OpacityMaskFilter)">
		<g>
			<g>
				<path d="M221.9,109.3c4.3,0,8.4-1.8,11.5-5c3.3-3.4,5.3-8.1,5.4-13.2c0.2-5.1-1.4-9.9-4.5-13.6c-3.2-3.9-7.7-6.1-12.5-6.1
					c-4.3,0-8.4,1.8-11.5,5c-3.3,3.4-5.3,8.1-5.4,13.2c-0.2,5.1,1.4,9.9,4.5,13.6C212.7,107.1,217.2,109.3,221.9,109.3z M219.2,87.1
					c0.7-0.8,1.7-1.2,2.7-1.2c1.1,0,2.2,0.5,2.9,1.4c0.7,0.9,1.1,2,1,3.2c0,1.2-0.5,2.3-1.3,3.1c-0.9,1-2,1.2-2.7,1.2
					c-1.1,0-2.2-0.5-2.9-1.4c-0.7-0.9-1.1-2-1-3.2C218,89,218.4,87.9,219.2,87.1z"/>
				<path d="M116.6,95.1c-10.5,0-19,9.5-19,21.3s8.5,21.3,19,21.3c10.5,0,19-9.5,19-21.3C135.6,104.6,127.1,95.1,116.6,95.1z
					 M116.6,123.1c-3.3,0-6-3-6-6.7c0-3.7,2.7-6.7,6-6.7c3.3,0,6,3,6,6.7C122.7,120,120,123.1,116.6,123.1z"/>
				<path d="M428.4,244.9c-0.4-2-2.1-6.8-9.2-6.8h-15.9c-3.6,0-6.5,3.3-6.5,7.3c0,4,2.9,7.3,6.5,7.3h0.2
					c-14.4,8.8-38.2,21.7-59.9,32.6h-27.1c-3.6,0-6.5,3.3-6.5,7.3s2.9,7.3,6.5,7.3h14.9l-7.3,10.7H111.9l-6.6-10.7h171.2
					c3.6,0,6.5-3.3,6.5-7.3s-2.9-7.3-6.5-7.3H92.9c-21.6-10.9-45.3-23.8-59.5-32.6h337.7c3.6,0,6.5-3.3,6.5-7.3c0-4-2.9-7.3-6.5-7.3
					H17.9c-7.1,0-8.8,4.8-9.2,6.8c-1.2,6.4,3.7,10.9,14.5,17.9c6.4,4.2,15.4,9.5,26.7,15.8c19.2,10.6,38.7,20.4,38.9,20.5
					c0.1,0,0.2,0.1,0.3,0.1l14,22.6c1.2,2,3.2,3.1,5.3,3.1h218.9c2,0,3.9-1.1,5.2-2.9l15.9-23.4c3.8-1.9,21.3-10.7,38.4-20.2
					c11.4-6.3,20.5-11.6,26.9-15.8C424.6,255.8,429.6,251.3,428.4,244.9z"/>
				<path d="M144.1,219.6c1.2,1.4,2.9,2.2,4.6,2.2c0.5,0,1.1-0.1,1.6-0.2c2.2-0.6,4-2.6,4.6-5.1l12.9-51.1l20.8,63.5
					c0.8,2.4,2.7,4.2,4.9,4.7c0.4,0.1,0.8,0.1,1.2,0.1c1.9,0,3.6-0.9,4.9-2.5l44.1-56.5l3.5,47.5c0.2,2.6,1.7,5,3.8,6
					c0.8,0.4,1.8,0.6,2.7,0.6c1.4,0,2.8-0.5,3.9-1.5l40.5-34.2l104.5-88.1c1.8-1.5,2.8-3.9,2.6-6.4s-1.5-4.7-3.5-5.8L240.9,0.8
					c-2.1-1.2-4.6-1-6.6,0.4c-2,1.5-3.1,4-2.9,6.6l2.1,28.9l-31.1-7.9c0.3-2.2-0.4-4.5-1.9-6.1c-1.7-1.9-4.1-2.6-6.4-1.8L30.4,74.8
					c-2.2,0.7-3.9,2.7-4.5,5.1c-0.6,2.5,0.1,5.1,1.7,6.9L144.1,219.6z M325.7,142.1c-4.1,0-7.4-3.7-7.4-8.3c0-4.6,3.3-8.3,7.4-8.3
					c4.1,0,7.4,3.7,7.4,8.3C333.2,138.3,329.8,142.1,325.7,142.1z M343.1,86.4c2.2,0,4,2,4,4.4c0,2.4-1.8,4.4-4,4.4
					c-2.2,0-4-2-4-4.4C339.2,88.4,341,86.4,343.1,86.4z M326.4,66.1l11.6,6.6c-6.8,2.4-11.8,9.6-11.8,18.1c0,10.5,7.6,19,17,19
					c9.3,0,16.9-8.5,16.9-19c0-2.1-0.3-4.1-0.8-5.9l27.4,15.7l-40.5,34.2c0-0.3,0-0.7,0-1c0-12.6-9.2-22.9-20.4-22.9
					c-11.3,0-20.4,10.3-20.4,22.9c0,10.8,6.7,19.8,15.6,22.2l-61.6,51.9l-3.6-48.4L324.8,71C325.9,69.6,326.5,67.9,326.4,66.1z
					 M302.7,52.5l-56-14.3l-1.4-18.5L302.7,52.5z M277.7,74c0,5.6-4.1,10.2-9.1,10.2s-9.1-4.6-9.1-10.2c0-5.6,4.1-10.2,9.1-10.2
					S277.7,68.3,277.7,74z M199.3,42.9l53.6,13.7c-3.9,4.5-6.4,10.6-6.4,17.4c0,13.6,9.9,24.7,22.1,24.7c12.2,0,22.1-11.1,22.1-24.7
					c0-2.8-0.4-5.5-1.2-8l18,4.6L197.1,212.4l-23-70.2L199.3,42.9z M88.5,81.6c1.6,0,2.9,1.4,2.9,3.2c0,1.8-1.3,3.2-2.9,3.2
					c-1.6,0-2.9-1.5-2.9-3.2C85.6,83,86.9,81.6,88.5,81.6z M75.1,75.2c-1.6,2.8-2.5,6.1-2.5,9.6c0,9.8,7.1,17.8,15.9,17.8
					c8.7,0,15.9-8,15.9-17.8c0-7.2-3.8-13.4-9.3-16.2l91.5-30.1l-41,162L44.4,85.3L75.1,75.2z"/>
			</g>
		</g>
		<rect x="216.4" y="0" width="4.3" height="34.2"/>
	</g>
</mask>
<polygon mask="url(#SVGID_1_)" fill="#EEF3F5" points="449,406.7 -16.6,415.9 1.2,-14.1 459.5,-18.9 "/>
</svg>
