<?xml version="1.0" encoding="utf-8"?>
<!-- Generator: Adobe Illustrator 18.0.0, SVG Export Plug-In . SVG Version: 6.00 Build 0)  -->
<!DOCTYPE svg PUBLIC "-//W3C//DTD SVG 1.1//EN" "http://www.w3.org/Graphics/SVG/1.1/DTD/svg11.dtd">
<svg version="1.1" id="Layer_1" xmlns="http://www.w3.org/2000/svg" xmlns:xlink="http://www.w3.org/1999/xlink" x="0px" y="0px"
	 viewBox="0 0 56 50" enable-background="new 0 0 56 50" xml:space="preserve">
<g>
	<rect x="20" y="18" fill="#3E243C" width="17" height="8"/>
	<path fill="#3E243C" d="M28,2C15.3,2,5,12.3,5,25s10.3,23,23,23s23-10.3,23-23S40.7,2,28,2z M43,30c0,1.1-0.9,2-2,2h-8v3h2v2H22v-2
		h2v-3h-8c-1.1,0-2-0.9-2-2V14c0-1.1,0.9-2,2-2h25c1.1,0,2,0.9,2,2V30z"/>
	<rect x="26" y="32" fill="#3E243C" width="5" height="3"/>
	<path fill="#3E243C" d="M16,30h25V14H16V30z M18,16h21v12H18V16z"/>
	<path fill="#3E243C" d="M0,0v50h56V0H0z M28,50C14.2,50,3,38.8,3,25S14.2,0,28,0s25,11.2,25,25S41.8,50,28,50z"/>
	<rect x="12.9" y="10.6" fill="#3E243C" width="31.2" height="28.9"/>
</g>
<g>
	<g>
		<path d="M158.7,117.3c14.8-11.8,3.4-66.7-3.6-85.6l-3.9-9.1c-2.5-6.1-6.3-10.3-12.4-13c-14.3-6.3-26.3-11.8-38-17
			c-14.2-6.4-27.6-12.4-44.6-19.9c-5.4-2.4-11-3.6-16.6-3.6c-17.7,0-32.4,11.4-40.3,17.5c0,0-69.5,56.2-83.3,60.3
			c-13.9,4.2-29.4,4.9-37.9,5v85.3c29.4,1,50,9.8,66.8,17c4.4,1.9,8.5,3.6,12.4,5.1c8.6,3.2,19.3,4.8,32.8,4.8
			c5.2,0,10.8-0.2,16.9-0.7c1.1,1.6,2.4,3,3.9,4.1c3,2.3,6.6,3.4,10.3,3.4c6.6,0,12-4.5,15.7-8.8l0.6,2.2c1.1,3.6,3.2,6.7,6.2,9
			c3,2.3,6.6,3.4,10.3,3.4c12.9,0,21.3-17.2,21.3-17.2s1.9,14.5,9.1,19.8c3,2.2,6.6,3.4,10.3,3.4c5.5,0,10.3-2.7,13.8-6.9
			c19.9-24.3,27.9-64.3,27.9-64.3S150.7,123.7,158.7,117.3z M107.7,62l14,4.7l10.1,29.8L107.7,62z"/>
		<path d="M-26.8-103.1c-1.1,1.6-1.9,3.4-2.3,5.5C-33.1-78.2-5.1-37.6-1.9-33c1.6,2.3,4.7,2.9,7,1.4c0.1-0.1,0.2-0.1,0.2-0.2
			c2.4-1.7,2.9-4.9,1.3-7.3c-9.7-13.8-23.7-38-25.5-51.4l35.3,56.6c6.9-2.9,14.7-5.6,23.2-5.6c6.4,0,12.7,1.8,18.8,4.2L0.8-127.5
			c-1.5-2.4-4.7-3.2-7.2-1.7l-22,13.7c-2.4,1.5-3.2,4.7-1.7,7.2L-26.8-103.1z"/>
		<path d="M185.4,187.1l-14-47c-0.1-0.4-0.3-0.9-0.6-1.3l-8.7-14c-1.7,0.4-3.4,0.6-5.1,0.7c-0.6,0-1.3,0-1.9,0c-4.9,0-9.5-1-13.7-3
			c-2,6.8-4.8,15.2-8.6,23.9l7.2,11.6c0.2,0.4,0.5,0.8,0.9,1.1l36,33.3c1.7,1.6,4.3,1.8,6.3,0.6
			C185.2,191.8,186.1,189.4,185.4,187.1z"/>
		<rect x="29" y="100.7" fill="#231F20" width="4" height="105.6"/>
		<rect x="29" y="-132.8" fill="#231F20" width="4" height="88.7"/>
	</g>
</g>
</svg>
